<?xml version="1.0" encoding="UTF-8"?>
<svg version="1.1" xmlns="http://www.w3.org/2000/svg" width="1080" height="1080">
<path d="M0 0 C1.75754608 0.00323273 1.75754608 0.00323273 3.55059814 0.00653076 C20.53222597 0.05666167 37.16776373 0.40391381 53.9375 3.3125 C55.76982178 3.61849121 55.76982178 3.61849121 57.63916016 3.93066406 C75.07716998 6.89782512 92.10461351 10.83577138 108.9375 16.3125 C109.90623047 16.62445313 110.87496094 16.93640625 111.87304688 17.2578125 C125.6555517 21.73963165 138.87658537 27.04036576 151.9375 33.3125 C152.83355957 33.73934082 153.72961914 34.16618164 154.65283203 34.60595703 C192.22463935 52.59910937 225.08566077 77.29477307 254.5 106.6875 C255.82161133 107.99074219 255.82161133 107.99074219 257.16992188 109.3203125 C263.19911629 115.33615815 268.631227 121.65650661 273.9375 128.3125 C274.89022507 129.45153238 275.84657117 130.58755931 276.80859375 131.71875 C291.21254953 148.93990942 303.65234273 168.38447254 313.9375 188.3125 C314.37610352 189.14491211 314.81470703 189.97732422 315.26660156 190.83496094 C332.5269545 223.65496117 343.94916662 259.09510212 350.1875 295.625 C350.41421387 296.94576538 350.41421387 296.94576538 350.64550781 298.29321289 C353.58912099 316.63099274 354.31143663 334.82540756 354.25 353.375 C354.24784485 354.54669739 354.2456897 355.71839478 354.24346924 356.92559814 C354.19333833 373.90722597 353.84608619 390.54276373 350.9375 407.3125 C350.63150879 409.14482178 350.63150879 409.14482178 350.31933594 411.01416016 C347.35217488 428.45216998 343.41422862 445.47961351 337.9375 462.3125 C337.62554688 463.28123047 337.31359375 464.24996094 336.9921875 465.24804688 C332.51036835 479.0305517 327.20963424 492.25158537 320.9375 505.3125 C320.51065918 506.20855957 320.08381836 507.10461914 319.64404297 508.02783203 C308.26103329 531.79688808 294.31406464 553.68123964 277.9375 574.3125 C277.21046875 575.23417969 276.4834375 576.15585937 275.734375 577.10546875 C261.135451 595.30160963 244.43962533 613.08642141 225.9375 627.3125 C224.43123047 628.57900391 224.43123047 628.57900391 222.89453125 629.87109375 C205.5658876 644.4039824 186.01402171 656.95070259 165.9375 667.3125 C164.68888184 667.97040527 164.68888184 667.97040527 163.41503906 668.64160156 C130.59503883 685.9019545 95.15489788 697.32416662 58.625 703.5625 C57.30423462 703.78921387 57.30423462 703.78921387 55.95678711 704.02050781 C37.61900726 706.96412099 19.42459244 707.68643663 0.875 707.625 C-0.29669739 707.62284485 -1.46839478 707.6206897 -2.67559814 707.61846924 C-19.65722597 707.56833833 -36.29276373 707.22108619 -53.0625 704.3125 C-54.89482178 704.00650879 -54.89482178 704.00650879 -56.76416016 703.69433594 C-74.20216998 700.72717488 -91.22961351 696.78922862 -108.0625 691.3125 C-109.03123047 691.00054688 -109.99996094 690.68859375 -110.99804688 690.3671875 C-124.7805517 685.88536835 -138.00158537 680.58463424 -151.0625 674.3125 C-151.95855957 673.88565918 -152.85461914 673.45881836 -153.77783203 673.01904297 C-191.34963935 655.02589063 -224.21066077 630.33022693 -253.625 600.9375 C-254.50607422 600.06867187 -255.38714844 599.19984375 -256.29492188 598.3046875 C-262.32411629 592.28884185 -267.756227 585.96849339 -273.0625 579.3125 C-274.01522507 578.17346762 -274.97157117 577.03744069 -275.93359375 575.90625 C-290.33754953 558.68509058 -302.77734273 539.24052746 -313.0625 519.3125 C-313.50110352 518.48008789 -313.93970703 517.64767578 -314.39160156 516.79003906 C-331.6519545 483.97003883 -343.07416662 448.52989788 -349.3125 412 C-349.46364258 411.11948975 -349.61478516 410.23897949 -349.77050781 409.33178711 C-352.71412099 390.99400726 -353.43643663 372.79959244 -353.375 354.25 C-353.37284485 353.07830261 -353.3706897 351.90660522 -353.36846924 350.69940186 C-353.31833833 333.71777403 -352.97108619 317.08223627 -350.0625 300.3125 C-349.75650879 298.48017822 -349.75650879 298.48017822 -349.44433594 296.61083984 C-346.47717488 279.17283002 -342.53922862 262.14538649 -337.0625 245.3125 C-336.75054687 244.34376953 -336.43859375 243.37503906 -336.1171875 242.37695312 C-331.63536835 228.5944483 -326.33463424 215.37341463 -320.0625 202.3125 C-319.63565918 201.41644043 -319.20881836 200.52038086 -318.76904297 199.59716797 C-307.38603329 175.82811192 -293.43906464 153.94376036 -277.0625 133.3125 C-276.33546875 132.39082031 -275.6084375 131.46914063 -274.859375 130.51953125 C-260.260451 112.32339037 -243.56462533 94.53857859 -225.0625 80.3125 C-224.05832031 79.46816406 -223.05414063 78.62382812 -222.01953125 77.75390625 C-204.68501287 63.21609069 -185.13571343 50.69399983 -165.0625 40.3125 C-163.83781006 39.6625708 -163.83781006 39.6625708 -162.58837891 38.99951172 C-129.88035883 21.65965431 -94.20296021 10.27465483 -57.75 4.0625 C-56.86973145 3.91143799 -55.98946289 3.76037598 -55.08251953 3.60473633 C-36.74470408 0.66025645 -18.54970102 -0.06143699 0 0 Z " fill="#1AEF42" transform="translate(540.0625,186.6875)"/>
<path d="M0 0 C6.53670249 3.75512696 10.10474843 8.06077106 13.94140625 14.39453125 C14.43552002 15.19205811 14.92963379 15.98958496 15.4387207 16.8112793 C21.36141507 26.43843377 27.09223626 36.18784451 32.81518555 45.93481445 C33.58982879 47.25111009 34.36496978 48.56711294 35.140625 49.8828125 C35.70543831 50.84094597 35.70543831 50.84094597 36.28166199 51.81843567 C39.38775418 57.04828274 42.65592125 62.16444733 46.02775574 67.22688293 C48.75390625 71.37054122 48.75390625 71.37054122 48.75390625 73.58203125 C49.88183594 73.67613281 51.00976562 73.77023437 52.171875 73.8671875 C59.88597468 74.72531511 67.47068106 76.4569413 75.06640625 78.01953125 C80.30325523 79.09221845 85.54139576 80.15737554 90.78570557 81.1930542 C92.54979476 81.54169254 94.31281341 81.89573754 96.07568359 82.25048828 C109.68357413 84.78868972 121.73724575 83.14297818 135.06640625 80.26953125 C136.55768627 79.9564583 138.04922281 79.6446047 139.54101562 79.33398438 C141.75816093 78.87204246 143.9752293 78.40980973 146.19168091 77.94454956 C151.30257404 76.87387689 156.41893746 75.8375231 161.546875 74.8515625 C162.81426514 74.60639893 164.08165527 74.36123535 165.38745117 74.10864258 C168.25833394 73.65955315 170.85895835 73.46995763 173.75390625 73.58203125 C174.01550537 72.87312744 174.27710449 72.16422363 174.54663086 71.43383789 C175.82683636 68.40975692 177.35477563 65.75289422 179.0703125 62.953125 C180.08097778 61.29651855 180.08097778 61.29651855 181.11206055 59.60644531 C181.84671679 58.41073008 182.58150191 57.21509402 183.31640625 56.01953125 C184.07432849 54.78114099 184.83189118 53.54253061 185.58911133 52.30371094 C186.76935676 50.37285597 187.94987171 48.44217237 189.13182068 46.51235962 C191.92462224 41.95003644 194.69284999 37.37347236 197.44921875 32.7890625 C198.58195667 30.90880873 199.71500251 29.02874082 200.84811401 27.14871216 C201.5684974 25.95167928 202.28754547 24.75384162 203.00515747 23.55514526 C214.06832488 5.08422537 214.06832488 5.08422537 220.25390625 1.20703125 C221.32125 0.51480469 221.32125 0.51480469 222.41015625 -0.19140625 C230.18973349 -4.26271834 238.6255606 -4.88667839 247.0546875 -2.47265625 C255.70407261 0.95262951 261.34392904 5.1248527 266.06640625 13.14453125 C266.47463623 13.81653564 266.88286621 14.48854004 267.3034668 15.1809082 C268.24733161 16.73725754 269.1861748 18.29665883 270.12109375 19.85839844 C272.32757294 23.53894298 274.55778877 27.20492783 276.78692627 30.8717804 C278.61555746 33.88024773 280.44247141 36.88971769 282.26464844 39.90209961 C285.72331791 45.61698119 289.19947491 51.31855793 292.73828125 56.984375 C293.64839966 58.44194214 293.64839966 58.44194214 294.5769043 59.92895508 C295.71244187 61.74246834 296.85176189 63.55362026 297.99536133 65.36206055 C298.49447021 66.159104 298.9935791 66.95614746 299.5078125 67.77734375 C299.94424072 68.46844238 300.38066895 69.15954102 300.83032227 69.87158203 C301.75390625 71.58203125 301.75390625 71.58203125 301.75390625 73.58203125 C302.88119141 73.71254883 304.00847656 73.84306641 305.16992188 73.97753906 C309.84741093 74.56370022 314.4650423 75.38749789 319.09765625 76.25390625 C319.9766861 76.41652451 320.85571594 76.57914276 321.76138306 76.74668884 C331.26240107 78.50881323 340.7571246 80.30473681 350.25036621 82.10821533 C352.48812699 82.5317303 354.72666952 82.95060816 356.96582031 83.36669922 C360.27357304 83.98485049 363.57673851 84.62232372 366.87890625 85.26953125 C368.23145508 85.51751465 368.23145508 85.51751465 369.61132812 85.77050781 C378.94234346 87.65763891 386.79807199 92.06375735 392.75390625 99.58203125 C398.04644429 108.17235135 399.28589508 117.36719195 397.17578125 127.3046875 C394.69375764 134.42358249 390.00161945 139.34396754 384.75390625 144.58203125 C384.10566895 145.23187988 383.45743164 145.88172852 382.78955078 146.55126953 C376.91242445 152.43637928 376.91242445 152.43637928 373.95825195 155.34204102 C370.58516461 158.67236708 367.36076294 162.00888246 364.3359375 165.66015625 C361.80225024 168.63520951 359.21854249 170.76557919 355.9921875 172.96484375 C350.13186707 177.22414581 343.68821522 181.99952669 342.41687012 189.5958252 C341.68793957 200.89836522 344.26078425 212.40869913 346.36248779 223.45751953 C347.24070202 228.22422477 347.86333813 233.02887251 348.50390625 237.83203125 C348.62548096 238.67822021 348.74705566 239.52440918 348.87231445 240.39624023 C350.56098149 252.53947736 352.3949869 266.72736198 344.90234375 277.16015625 C338.54281939 284.84551784 331.28678082 289.34775957 321.44140625 290.9609375 C310.54681094 291.70519038 301.48269452 286.85687155 291.75390625 282.58203125 C289.34703759 281.54394534 286.93949897 280.50752519 284.53125 279.47265625 C274.79150401 275.27833014 265.06265931 271.05956589 255.375 266.74609375 C253.9372522 266.11272095 253.9372522 266.11272095 252.47045898 265.46655273 C250.71719821 264.69399611 248.96768135 263.91285953 247.22290039 263.12133789 C246.44938232 262.78223389 245.67586426 262.44312988 244.87890625 262.09375 C244.22148438 261.79944092 243.5640625 261.50513184 242.88671875 261.2019043 C237.20662154 259.55106103 232.80198396 261.06157843 227.6015625 263.40625 C226.91663727 263.70423492 226.23171204 264.00221985 225.52603149 264.30923462 C223.28513383 265.28636529 221.05100684 266.2780961 218.81640625 267.26953125 C217.26009487 267.95012452 215.70320215 268.62938988 214.14575195 269.30737305 C211.74740052 270.35147 209.34936813 271.3962255 206.95298767 272.44483948 C199.48153419 275.71317324 191.97677156 278.89892051 184.45529175 282.05020142 C182.47894732 282.878792 180.50418347 283.71106428 178.52954102 284.54370117 C177.32869873 285.04748291 176.12785645 285.55126465 174.890625 286.0703125 C173.84608154 286.50899658 172.80153809 286.94768066 171.7253418 287.3996582 C163.27796619 290.76097938 155.36829346 292.46916379 146.48828125 289.484375 C137.10121387 285.06207567 130.50790849 279.37069301 126.75390625 269.58203125 C122.90079012 257.13717315 126.59374727 241.44011564 128.12890625 228.83203125 C128.35369056 226.94150428 128.57765244 225.05087933 128.80078125 223.16015625 C128.91152985 222.22946823 129.02227844 221.29878021 129.13638306 220.33988953 C129.35459738 218.47655248 129.56637613 216.61245002 129.77157593 214.74763489 C130.27384313 210.24686189 130.87012935 205.817432 131.72900391 201.36987305 C133.42691116 192.51921604 133.42691116 192.51921604 130.93994141 184.13232422 C128.2986076 181.06682005 125.48745768 178.4594281 122.37890625 175.89453125 C121.35336274 174.97462522 120.3324741 174.04950224 119.31640625 173.11914062 C116.83628166 170.88468875 114.32234617 168.71365077 111.75390625 166.58203125 C110.76519531 167.43667969 109.77648437 168.29132813 108.7578125 169.171875 C106.78187374 170.87685064 104.80060272 172.54582989 102.73779297 174.14501953 C94.22272464 180.60189504 94.22272464 180.60189504 89.18994141 189.69873047 C88.86501863 194.88928383 90.04410332 199.93276542 91.07910156 204.99462891 C92.36850043 211.84934197 93.16889893 218.77751847 94.04504395 225.69506836 C94.36971567 228.19866133 94.71836986 230.69779524 95.07324219 233.19726562 C99.65833942 266.36066861 99.65833942 266.36066861 91.90234375 277.16015625 C85.85624073 284.46675424 79.17127122 289.01493441 69.75390625 290.58203125 C69.03074219 290.70707031 68.30757812 290.83210938 67.5625 290.9609375 C60.92172616 291.47513251 55.78621259 289.6692588 49.77734375 287.16015625 C48.47697929 286.62827446 48.47697929 286.62827446 47.15034485 286.08564758 C36.69036609 281.78160872 26.31407771 277.27881682 15.94140625 272.76953125 C13.97211779 271.91575591 12.00271711 271.06223934 10.03320312 270.20898438 C6.44485857 268.65418989 2.85723567 267.09775298 -0.72973633 265.53979492 C-1.50306305 265.20748871 -2.27638977 264.8751825 -3.07315063 264.5328064 C-4.45371264 263.92873902 -5.82614643 263.30545727 -7.18637085 262.65689087 C-12.52168406 260.16012154 -16.07393129 259.83459537 -21.64819336 261.75268555 C-22.90309825 262.29280179 -24.15296921 262.84471588 -25.3984375 263.40625 C-26.08336273 263.70423492 -26.76828796 264.00221985 -27.47396851 264.30923462 C-29.71486617 265.28636529 -31.94899316 266.2780961 -34.18359375 267.26953125 C-35.73990513 267.95012452 -37.29679785 268.62938988 -38.85424805 269.30737305 C-41.25259948 270.35147 -43.65063187 271.3962255 -46.04701233 272.44483948 C-53.51846581 275.71317324 -61.02322844 278.89892051 -68.54470825 282.05020142 C-70.52105268 282.878792 -72.49581653 283.71106428 -74.47045898 284.54370117 C-75.67130127 285.04748291 -76.87214355 285.55126465 -78.109375 286.0703125 C-79.15391846 286.50899658 -80.19846191 286.94768066 -81.2746582 287.3996582 C-89.72203381 290.76097938 -97.63170654 292.46916379 -106.51171875 289.484375 C-115.89878613 285.06207567 -122.49209151 279.37069301 -126.24609375 269.58203125 C-130.01535115 257.43914375 -126.4573253 242.2536582 -124.87109375 229.95703125 C-124.64621868 228.17980326 -124.42225714 226.40245943 -124.19921875 224.625 C-124.08838455 223.74521988 -123.97755035 222.86543976 -123.86335754 221.95899963 C-123.64478657 220.18351311 -123.43390021 218.40706346 -123.23075867 216.62974548 C-122.70593505 212.05498981 -122.07494096 207.54590397 -121.23364258 203.01782227 C-119.29627635 193.09680157 -119.29627635 193.09680157 -122.22851562 183.81152344 C-124.99279021 180.34810197 -128.27399545 177.57381811 -131.68359375 174.76953125 C-132.79496071 173.78256983 -133.90113437 172.78972851 -135.00195312 171.79101562 C-137.12175168 169.87540628 -139.26248544 167.98891079 -141.42211914 166.1184082 C-144.41123392 163.4337092 -146.98449033 160.61421539 -149.5534668 157.53686523 C-153.65492336 152.80004673 -158.32677299 148.54762435 -162.83789062 144.20507812 C-170.45861164 136.72512609 -175.48478759 129.40009139 -175.62109375 118.33203125 C-175.394936 107.8454537 -171.74957288 101.53300969 -164.85546875 93.80859375 C-158.16225334 88.09731713 -150.59221694 86.47277485 -142.12109375 84.76953125 C-140.93346436 84.52307861 -139.74583496 84.27662598 -138.5222168 84.02270508 C-127.72533159 81.81411068 -116.89384939 79.78011235 -106.05859375 77.76953125 C-105.23703796 77.61664642 -104.41548218 77.4637616 -103.56903076 77.3062439 C-87.36703177 74.30326796 -87.36703177 74.30326796 -79.24609375 73.58203125 C-78.98449463 72.87312744 -78.72289551 72.16422363 -78.45336914 71.43383789 C-77.17316364 68.40975692 -75.64522437 65.75289422 -73.9296875 62.953125 C-73.25591064 61.8487207 -72.58213379 60.74431641 -71.88793945 59.60644531 C-71.15328321 58.41073008 -70.41849809 57.21509402 -69.68359375 56.01953125 C-68.92567151 54.78114099 -68.16810882 53.54253061 -67.41088867 52.30371094 C-66.23064324 50.37285597 -65.05012829 48.44217237 -63.86817932 46.51235962 C-61.07537776 41.95003644 -58.30715001 37.37347236 -55.55078125 32.7890625 C-54.41804333 30.90880873 -53.28499749 29.02874082 -52.15188599 27.14871216 C-51.4315026 25.95167928 -50.71245453 24.75384162 -49.99484253 23.55514526 C-38.93167512 5.08422537 -38.93167512 5.08422537 -32.74609375 1.20703125 C-32.03453125 0.74554688 -31.32296875 0.2840625 -30.58984375 -0.19140625 C-20.43850979 -5.50393769 -10.22694645 -4.48051201 0 0 Z " fill="#FDF03C" transform="translate(430.24609375,396.41796875)"/>
<path d="M0 0 C1.75754608 0.00323273 1.75754608 0.00323273 3.55059814 0.00653076 C20.53222597 0.05666167 37.16776373 0.40391381 53.9375 3.3125 C55.76982178 3.61849121 55.76982178 3.61849121 57.63916016 3.93066406 C75.07716998 6.89782512 92.10461351 10.83577138 108.9375 16.3125 C109.90623047 16.62445313 110.87496094 16.93640625 111.87304688 17.2578125 C125.6555517 21.73963165 138.87658537 27.04036576 151.9375 33.3125 C152.83355957 33.73934082 153.72961914 34.16618164 154.65283203 34.60595703 C192.22463935 52.59910937 225.08566077 77.29477307 254.5 106.6875 C255.82161133 107.99074219 255.82161133 107.99074219 257.16992188 109.3203125 C263.19911629 115.33615815 268.631227 121.65650661 273.9375 128.3125 C274.89022507 129.45153238 275.84657117 130.58755931 276.80859375 131.71875 C291.21254953 148.93990942 303.65234273 168.38447254 313.9375 188.3125 C314.37610352 189.14491211 314.81470703 189.97732422 315.26660156 190.83496094 C332.5269545 223.65496117 343.94916662 259.09510212 350.1875 295.625 C350.41421387 296.94576538 350.41421387 296.94576538 350.64550781 298.29321289 C353.58912099 316.63099274 354.31143663 334.82540756 354.25 353.375 C354.24784485 354.54669739 354.2456897 355.71839478 354.24346924 356.92559814 C354.19333833 373.90722597 353.84608619 390.54276373 350.9375 407.3125 C350.63150879 409.14482178 350.63150879 409.14482178 350.31933594 411.01416016 C347.35217488 428.45216998 343.41422862 445.47961351 337.9375 462.3125 C337.62554688 463.28123047 337.31359375 464.24996094 336.9921875 465.24804688 C332.51036835 479.0305517 327.20963424 492.25158537 320.9375 505.3125 C320.51065918 506.20855957 320.08381836 507.10461914 319.64404297 508.02783203 C308.26103329 531.79688808 294.31406464 553.68123964 277.9375 574.3125 C277.21046875 575.23417969 276.4834375 576.15585937 275.734375 577.10546875 C261.135451 595.30160963 244.43962533 613.08642141 225.9375 627.3125 C224.43123047 628.57900391 224.43123047 628.57900391 222.89453125 629.87109375 C205.5658876 644.4039824 186.01402171 656.95070259 165.9375 667.3125 C164.68888184 667.97040527 164.68888184 667.97040527 163.41503906 668.64160156 C130.59503883 685.9019545 95.15489788 697.32416662 58.625 703.5625 C57.30423462 703.78921387 57.30423462 703.78921387 55.95678711 704.02050781 C37.61900726 706.96412099 19.42459244 707.68643663 0.875 707.625 C-0.29669739 707.62284485 -1.46839478 707.6206897 -2.67559814 707.61846924 C-19.65722597 707.56833833 -36.29276373 707.22108619 -53.0625 704.3125 C-54.89482178 704.00650879 -54.89482178 704.00650879 -56.76416016 703.69433594 C-74.20216998 700.72717488 -91.22961351 696.78922862 -108.0625 691.3125 C-109.03123047 691.00054688 -109.99996094 690.68859375 -110.99804688 690.3671875 C-124.7805517 685.88536835 -138.00158537 680.58463424 -151.0625 674.3125 C-151.95855957 673.88565918 -152.85461914 673.45881836 -153.77783203 673.01904297 C-191.34963935 655.02589063 -224.21066077 630.33022693 -253.625 600.9375 C-254.50607422 600.06867187 -255.38714844 599.19984375 -256.29492188 598.3046875 C-262.32411629 592.28884185 -267.756227 585.96849339 -273.0625 579.3125 C-274.01522507 578.17346762 -274.97157117 577.03744069 -275.93359375 575.90625 C-290.33754953 558.68509058 -302.77734273 539.24052746 -313.0625 519.3125 C-313.50110352 518.48008789 -313.93970703 517.64767578 -314.39160156 516.79003906 C-331.6519545 483.97003883 -343.07416662 448.52989788 -349.3125 412 C-349.46364258 411.11948975 -349.61478516 410.23897949 -349.77050781 409.33178711 C-352.71412099 390.99400726 -353.43643663 372.79959244 -353.375 354.25 C-353.37284485 353.07830261 -353.3706897 351.90660522 -353.36846924 350.69940186 C-353.31833833 333.71777403 -352.97108619 317.08223627 -350.0625 300.3125 C-349.75650879 298.48017822 -349.75650879 298.48017822 -349.44433594 296.61083984 C-346.47717488 279.17283002 -342.53922862 262.14538649 -337.0625 245.3125 C-336.75054687 244.34376953 -336.43859375 243.37503906 -336.1171875 242.37695312 C-331.63536835 228.5944483 -326.33463424 215.37341463 -320.0625 202.3125 C-319.63565918 201.41644043 -319.20881836 200.52038086 -318.76904297 199.59716797 C-307.38603329 175.82811192 -293.43906464 153.94376036 -277.0625 133.3125 C-276.33546875 132.39082031 -275.6084375 131.46914063 -274.859375 130.51953125 C-260.260451 112.32339037 -243.56462533 94.53857859 -225.0625 80.3125 C-224.05832031 79.46816406 -223.05414063 78.62382812 -222.01953125 77.75390625 C-204.68501287 63.21609069 -185.13571343 50.69399983 -165.0625 40.3125 C-163.83781006 39.6625708 -163.83781006 39.6625708 -162.58837891 38.99951172 C-129.88035883 21.65965431 -94.20296021 10.27465483 -57.75 4.0625 C-56.86973145 3.91143799 -55.98946289 3.76037598 -55.08251953 3.60473633 C-36.74470408 0.66025645 -18.54970102 -0.06143699 0 0 Z M-237.0625 101.3125 C-238.11383494 102.26398932 -239.16726126 103.21317236 -240.22265625 104.16015625 C-245.19807467 108.6329762 -250.00948893 113.11304927 -254.3125 118.25390625 C-256.36034315 120.66286459 -258.52402569 122.94437433 -260.6875 125.25 C-267.32588279 132.54216292 -273.20488201 140.38800479 -279.0625 148.3125 C-279.57071289 148.99586426 -280.07892578 149.67922852 -280.60253906 150.38330078 C-292.41599458 166.35647794 -302.63329243 183.44557853 -311.14746094 201.39697266 C-312.08123706 203.35172385 -313.04227089 205.29123548 -314.0078125 207.23046875 C-351.22684556 282.85822611 -356.80627288 376.24189454 -331.0625 456.3125 C-330.75586426 457.27510742 -330.44922852 458.23771484 -330.13330078 459.22949219 C-313.66126176 510.27658874 -285.83291012 558.88156662 -247.0625 596.3125 C-244.39307172 598.96433732 -241.74479116 601.63496959 -239.1171875 604.328125 C-232.43813882 611.14553439 -225.61875567 617.45906251 -218.0625 623.3125 C-216.78515357 624.31900701 -215.50781001 625.32551768 -214.23046875 626.33203125 C-175.72180906 656.44603832 -132.24455516 677.60507411 -85.0625 690.3125 C-83.83200928 690.64652832 -83.83200928 690.64652832 -82.57666016 690.98730469 C-71.77684448 693.86756878 -60.87409574 695.52238917 -49.79736328 696.94042969 C-47.15538137 697.29986376 -44.5317423 697.72275787 -41.90234375 698.1640625 C5.45472641 705.67146976 57.45209414 699.93666765 102.9375 685.3125 C103.90010742 685.00586426 104.86271484 684.69922852 105.85449219 684.38330078 C154.03774241 668.83537678 198.25254364 643.4031096 235.2578125 608.8046875 C237.7121035 606.52212532 240.21581987 604.31787641 242.75 602.125 C246.23183374 599.05094859 249.27062 595.7789222 252.265625 592.234375 C253.87191634 590.38789056 255.55067614 588.69716977 257.3125 587 C261.92537614 582.43815125 265.92797319 577.40258768 269.9375 572.3125 C270.42524902 571.69584473 270.91299805 571.07918945 271.41552734 570.44384766 C307.12936076 525.10232249 331.56455116 472.15912398 341.9375 415.3125 C342.09057617 414.5086084 342.24365234 413.7047168 342.40136719 412.87646484 C358.75649948 326.23101682 337.77477597 232.50756024 288.32128906 159.94091797 C278.33751534 145.50492083 267.41626237 131.81261105 255.4296875 118.9921875 C253.14712532 116.5378965 250.94287641 114.03418013 248.75 111.5 C245.67594859 108.01816626 242.4039222 104.97938 238.859375 101.984375 C237.01289056 100.37808366 235.32216977 98.69932386 233.625 96.9375 C229.0635188 92.32499552 224.02961645 88.3188618 218.9375 84.3125 C218.30489258 83.81411621 217.67228516 83.31573242 217.02050781 82.80224609 C207.28805541 75.16926921 197.38653497 67.9341737 186.9375 61.3125 C186.36418945 60.94737305 185.79087891 60.58224609 185.20019531 60.20605469 C150.27312339 38.14164382 110.24615899 21.38515681 69.5625 13.75 C67.9084314 13.43530762 67.9084314 13.43530762 66.22094727 13.11425781 C54.8535991 11.01258159 43.423954 9.57691737 31.9375 8.3125 C31.2823793 8.22998489 30.62725861 8.14746979 29.95228577 8.06245422 C24.35304196 7.38200266 18.82935923 7.12437818 13.19140625 7.07421875 C12.27527054 7.0644249 11.35913483 7.05463104 10.41523743 7.04454041 C-82.40066924 6.25923631 -168.96836533 37.65326148 -237.0625 101.3125 Z " fill="#FBFEFB" transform="translate(540.0625,186.6875)"/>
<path d="M0 0 C2.25 -0.0625 2.25 -0.0625 5 1 C8.70325344 6.46960788 9.77980504 12.53177301 10 19 C10.07734375 20.87365234 10.07734375 20.87365234 10.15625 22.78515625 C10.84713003 47.53305458 10.84713003 47.53305458 4.890625 54.44921875 C4.26671875 54.96097656 3.6428125 55.47273437 3 56 C-0.88155923 54.52768443 -2.11001355 52.63103375 -4 49 C-7.66159288 35.99840816 -8.72991539 16.42660662 -3 4 C-2.03968712 2.63780436 -1.04866371 1.29540812 0 0 Z " fill="#0D0D06" transform="translate(435,459)"/>
<path d="M0 0 C2.25 -0.0625 2.25 -0.0625 5 1 C13.52577098 14.60197016 10.83240716 33.85220812 8.046875 48.84765625 C6.92268339 52.2328153 5.71801038 53.7480947 3 56 C-0.88255329 54.52730737 -2.11709973 52.63788612 -4 49 C-7.53145296 35.78065738 -8.76737175 15.01939936 -1.875 2.75 C-1.25625 1.8425 -0.6375 0.935 0 0 Z " fill="#0D0D06" transform="translate(385,459)"/>
<path d="M0 0 C2.25 -0.0625 2.25 -0.0625 5 1 C8.70325344 6.46960788 9.77980504 12.53177301 10 19 C10.07734375 20.87365234 10.07734375 20.87365234 10.15625 22.78515625 C10.84713003 47.53305458 10.84713003 47.53305458 4.890625 54.44921875 C4.26671875 54.96097656 3.6428125 55.47273437 3 56 C-0.88255329 54.52730737 -2.11709973 52.63788612 -4 49 C-7.53145296 35.78065738 -8.76737175 15.01939936 -1.875 2.75 C-1.25625 1.8425 -0.6375 0.935 0 0 Z " fill="#0C0C06" transform="translate(642,465)"/>
<path d="M0 0 C2.25 -0.0625 2.25 -0.0625 5 1 C8.70325344 6.46960788 9.77980504 12.53177301 10 19 C10.07734375 20.87365234 10.07734375 20.87365234 10.15625 22.78515625 C10.84713003 47.53305458 10.84713003 47.53305458 4.890625 54.44921875 C4.26671875 54.96097656 3.6428125 55.47273437 3 56 C-0.88255329 54.52730737 -2.11709973 52.63788612 -4 49 C-7.53145296 35.78065738 -8.76737175 15.01939936 -1.875 2.75 C-1.25625 1.8425 -0.6375 0.935 0 0 Z " fill="#0C0C06" transform="translate(693,464)"/>
</svg>
